<?xml version="1.0" encoding="UTF-8" standalone="no"?><svg xmlns="http://www.w3.org/2000/svg" xmlns:xlink="http://www.w3.org/1999/xlink" contentScriptType="application/ecmascript" contentStyleType="text/css" height="180px" preserveAspectRatio="none" style="width:107px;height:180px;background:#00000000;" version="1.1" viewBox="0 0 107 180" width="107px" zoomAndPan="magnify"><defs/><g><text fill="#000000" font-family="sans-serif" font-size="12" lengthAdjust="spacingAndGlyphs" textLength="34" x="16" y="17.2801">World</text><text fill="#000000" font-family="sans-serif" font-size="12" lengthAdjust="spacingAndGlyphs" textLength="47" x="26" y="31.3682">America</text><text fill="#000000" font-family="sans-serif" font-size="12" lengthAdjust="spacingAndGlyphs" textLength="43" x="36" y="45.4563">Canada</text><text fill="#000000" font-family="sans-serif" font-size="12" lengthAdjust="spacingAndGlyphs" textLength="24" x="36" y="59.5444">USA</text><text fill="#000000" font-family="sans-serif" font-size="12" lengthAdjust="spacingAndGlyphs" textLength="54" x="46" y="73.6325">New York</text><text fill="#000000" font-family="sans-serif" font-size="12" lengthAdjust="spacingAndGlyphs" textLength="39" x="46" y="87.7206">Boston</text><text fill="#000000" font-family="sans-serif" font-size="12" lengthAdjust="spacingAndGlyphs" textLength="41" x="36" y="101.8087">Mexico</text><text fill="#000000" font-family="sans-serif" font-size="12" lengthAdjust="spacingAndGlyphs" textLength="39" x="26" y="115.8968">Europe</text><text fill="#000000" font-family="sans-serif" font-size="12" lengthAdjust="spacingAndGlyphs" textLength="24" x="36" y="129.9849">Italy</text><text fill="#000000" font-family="sans-serif" font-size="12" lengthAdjust="spacingAndGlyphs" textLength="52" x="36" y="144.073">Germany</text><text fill="#000000" font-family="sans-serif" font-size="12" lengthAdjust="spacingAndGlyphs" textLength="32" x="46" y="158.1611">Berlin</text><text fill="#000000" font-family="sans-serif" font-size="12" lengthAdjust="spacingAndGlyphs" textLength="33" x="26" y="172.2492">Africa</text><rect fill="none" height="2" style="stroke:#888888;stroke-width:1.0;" width="2" x="9" y="12.044"/><rect fill="none" height="2" style="stroke:#888888;stroke-width:1.0;" width="2" x="19" y="26.1321"/><line style="stroke:#888888;stroke-width:1.0;" x1="10" x2="10" y1="15.044" y2="27.1321"/><line style="stroke:#888888;stroke-width:1.0;" x1="10" x2="18" y1="27.1321" y2="27.1321"/><line style="stroke:#888888;stroke-width:1.0;" x1="20" x2="20" y1="29.1321" y2="41.2202"/><line style="stroke:#888888;stroke-width:1.0;" x1="20" x2="28" y1="41.2202" y2="41.2202"/><rect fill="none" height="2" style="stroke:#888888;stroke-width:1.0;" width="2" x="29" y="54.3083"/><line style="stroke:#888888;stroke-width:1.0;" x1="20" x2="20" y1="29.1321" y2="55.3083"/><line style="stroke:#888888;stroke-width:1.0;" x1="20" x2="28" y1="55.3083" y2="55.3083"/><line style="stroke:#888888;stroke-width:1.0;" x1="30" x2="30" y1="57.3083" y2="69.3964"/><line style="stroke:#888888;stroke-width:1.0;" x1="30" x2="38" y1="69.3964" y2="69.3964"/><line style="stroke:#888888;stroke-width:1.0;" x1="30" x2="30" y1="57.3083" y2="83.4845"/><line style="stroke:#888888;stroke-width:1.0;" x1="30" x2="38" y1="83.4845" y2="83.4845"/><line style="stroke:#888888;stroke-width:1.0;" x1="20" x2="20" y1="29.1321" y2="97.5726"/><line style="stroke:#888888;stroke-width:1.0;" x1="20" x2="28" y1="97.5726" y2="97.5726"/><rect fill="none" height="2" style="stroke:#888888;stroke-width:1.0;" width="2" x="19" y="110.6607"/><line style="stroke:#888888;stroke-width:1.0;" x1="10" x2="10" y1="15.044" y2="111.6607"/><line style="stroke:#888888;stroke-width:1.0;" x1="10" x2="18" y1="111.6607" y2="111.6607"/><line style="stroke:#888888;stroke-width:1.0;" x1="20" x2="20" y1="113.6607" y2="125.7488"/><line style="stroke:#888888;stroke-width:1.0;" x1="20" x2="28" y1="125.7488" y2="125.7488"/><rect fill="none" height="2" style="stroke:#888888;stroke-width:1.0;" width="2" x="29" y="138.8369"/><line style="stroke:#888888;stroke-width:1.0;" x1="20" x2="20" y1="113.6607" y2="139.8369"/><line style="stroke:#888888;stroke-width:1.0;" x1="20" x2="28" y1="139.8369" y2="139.8369"/><line style="stroke:#888888;stroke-width:1.0;" x1="30" x2="30" y1="141.8369" y2="153.925"/><line style="stroke:#888888;stroke-width:1.0;" x1="30" x2="38" y1="153.925" y2="153.925"/><line style="stroke:#888888;stroke-width:1.0;" x1="10" x2="10" y1="15.044" y2="168.0131"/><line style="stroke:#888888;stroke-width:1.0;" x1="10" x2="18" y1="168.0131" y2="168.0131"/><!--MD5=[88873b4d366ee2ab8d7f9c65ef29c90f]
@startsalt
skinparamlocked backgroundcolor transparent
skinparamlocked backgroundcolor transparent
skinparamlocked defaultFontSize 24
skinparamlocked defaultFontName Raleway
{
{T
 + World
 ++ America
 +++ Canada
 +++ USA
 ++++ New York
 ++++ Boston
 +++ Mexico
 ++ Europe
 +++ Italy
 +++ Germany
 ++++ Berlin
 ++ Africa
}
}
@endsalt

PlantUML version 1.2020.23(Sun Dec 13 19:14:58 GMT 2020)
(GPL source distribution)
Java Runtime: OpenJDK Runtime Environment
JVM: OpenJDK 64-Bit Server VM
Default Encoding: UTF-8
Language: en
Country: US
--></g></svg>