<?xml version="1.0" encoding="UTF-8" standalone="no"?><svg xmlns="http://www.w3.org/2000/svg" xmlns:xlink="http://www.w3.org/1999/xlink" contentScriptType="application/ecmascript" contentStyleType="text/css" height="121.6667px" preserveAspectRatio="none" style="width:578px;height:121px;background:#00000000;" version="1.1" viewBox="0 0 578 121" width="578.3333px" zoomAndPan="magnify"><defs><filter height="300%" id="f1f48goxt8qawg" width="300%" x="-1" y="-1"><feGaussianBlur result="blurOut" stdDeviation="0.6666666666666666"/><feColorMatrix in="blurOut" result="blurOut2" type="matrix" values="0 0 0 0 0 0 0 0 0 0 0 0 0 0 0 0 0 0 .4 0"/><feOffset dx="1.3333333333333333" dy="1.3333333333333333" in="blurOut2" result="blurOut3"/><feBlend in="SourceGraphic" in2="blurOut3" mode="normal"/></filter></defs><g><!--MD5=[c83af40a2e562aea7bedd6b0dbd122e8]
cluster AppModule--><polygon filter="url(#f1f48goxt8qawg)" points="5.3333,16.0387,54,16.0387,56.3333,27.4306,293.6667,27.4306,293.6667,77.5387,5.3333,77.5387,5.3333,16.0387" style="stroke:#000000;stroke-width:0.5;fill:none;"/><line style="stroke:#000000;stroke-width:0.5;fill:none;" x1="5.3333" x2="56.3333" y1="27.4306" y2="27.4306"/><text fill="#000000" font-family="Raleway" font-size="8" font-weight="bold" lengthAdjust="spacingAndGlyphs" textLength="46.6667" x="6.6667" y="24.2253">AppModule</text><!--MD5=[f9603faa660d7179857c36429783e1be]
cluster App Routing Module--><polygon filter="url(#f1f48goxt8qawg)" points="198,34.372,282.3333,34.372,284.6667,45.764,285.6667,45.764,285.6667,61.372,198,61.372,198,34.372" style="stroke:#000000;stroke-width:0.5;fill:none;"/><line style="stroke:#000000;stroke-width:0.5;fill:none;" x1="198" x2="284.6667" y1="45.764" y2="45.764"/><text fill="#000000" font-family="Raleway" font-size="8" font-weight="bold" lengthAdjust="spacingAndGlyphs" textLength="82.3333" x="199.3333" y="42.5586">App Routing Module</text><!--MD5=[7006b8d200bc8f2573d2dcf59abae72b]
cluster TabModule--><polygon filter="url(#f1f48goxt8qawg)" points="304.3333,2.7053,352,2.7053,354.3333,14.0973,572.6667,14.0973,572.6667,119.5387,304.3333,119.5387,304.3333,2.7053" style="stroke:#000000;stroke-width:0.5;fill:none;"/><line style="stroke:#000000;stroke-width:0.5;fill:none;" x1="304.3333" x2="354.3333" y1="14.0973" y2="14.0973"/><text fill="#000000" font-family="Raleway" font-size="8" font-weight="bold" lengthAdjust="spacingAndGlyphs" textLength="45.6667" x="305.6667" y="10.892">TabModule</text><!--MD5=[afec1fc1a139c16b77fe7411e7e154e7]
cluster Tab Routing Module--><polygon filter="url(#f1f48goxt8qawg)" points="445,23.7053,528.3333,23.7053,530.6667,35.0973,557.6667,35.0973,557.6667,72.0387,445,72.0387,445,23.7053" style="stroke:#000000;stroke-width:0.5;fill:none;"/><line style="stroke:#000000;stroke-width:0.5;fill:none;" x1="445" x2="530.6667" y1="35.0973" y2="35.0973"/><text fill="#000000" font-family="Raleway" font-size="8" font-weight="bold" lengthAdjust="spacingAndGlyphs" textLength="81.3333" x="446.3333" y="31.892">Tab Routing Module</text><!--MD5=[df2bed7f92c71626a0b31269ff497796]
entity AppComponent--><rect fill="#FEFECE" filter="url(#f1f48goxt8qawg)" height="38.1759" style="stroke:#A80036;stroke-width:0.5;" width="181.6667" x="10.8333" y="33.872"/><rect fill="#FEFECE" height="3.3333" style="stroke:#A80036;stroke-width:0.5;" width="5" x="185.8333" y="35.5387"/><rect fill="#FEFECE" height="0.6667" style="stroke:#A80036;stroke-width:0.5;" width="1.3333" x="185.1667" y="36.2053"/><rect fill="#FEFECE" height="0.6667" style="stroke:#A80036;stroke-width:0.5;" width="1.3333" x="185.1667" y="37.5387"/><text fill="#000000" font-family="Raleway" font-size="8" lengthAdjust="spacingAndGlyphs" textLength="59" x="15.8333" y="48.0586">AppComponent</text><text fill="#000000" font-family="Raleway" font-size="8" lengthAdjust="spacingAndGlyphs" textLength="70" x="15.8333" y="57.4506">Coding Init Aplikasi</text><text fill="#000000" font-family="Raleway" font-size="8" lengthAdjust="spacingAndGlyphs" textLength="168.3333" x="15.8333" y="66.8426">HTML &lt;ion-router-outlet&gt;&lt;/ion-router-outlet&gt;</text><!--MD5=[eab4eb7d0ef44c19c3b4c8ba4c3c2b5b]
entity root--><ellipse cx="277.3333" cy="53.0387" fill="#FEFECE" filter="url(#f1f48goxt8qawg)" rx="2.6667" ry="2.6667" style="stroke:#A80036;stroke-width:0.5;"/><text fill="#000000" font-family="Raleway" font-size="8" lengthAdjust="spacingAndGlyphs" textLength="5" x="274.8333" y="66.2253">/</text><!--MD5=[2c3ea186839e583fa5d01804bd21eb52]
entity TabsPage--><rect fill="#FEFECE" filter="url(#f1f48goxt8qawg)" height="38.1759" style="stroke:#A80036;stroke-width:0.5;" width="119.6667" x="318.8333" y="33.872"/><rect fill="#FEFECE" height="3.3333" style="stroke:#A80036;stroke-width:0.5;" width="5" x="431.8333" y="35.5387"/><rect fill="#FEFECE" height="0.6667" style="stroke:#A80036;stroke-width:0.5;" width="1.3333" x="431.1667" y="36.2053"/><rect fill="#FEFECE" height="0.6667" style="stroke:#A80036;stroke-width:0.5;" width="1.3333" x="431.1667" y="37.5387"/><text fill="#000000" font-family="Raleway" font-size="8" lengthAdjust="spacingAndGlyphs" textLength="37.3333" x="323.8333" y="48.0586">TabsPage</text><text fill="#000000" font-family="Raleway" font-size="8" lengthAdjust="spacingAndGlyphs" textLength="70" x="323.8333" y="57.4506">Coding Init Aplikasi</text><text fill="#000000" font-family="Raleway" font-size="8" lengthAdjust="spacingAndGlyphs" textLength="106.3333" x="323.8333" y="66.8426">HTML &lt;ion-tabs&gt;&lt;/ion-tabs&gt;</text><!--MD5=[8132315f3bf7e5d6960c76c04a415e4f]
entity Tab1Component--><rect fill="#FEFECE" filter="url(#f1f48goxt8qawg)" height="19.392" style="stroke:#A80036;stroke-width:0.5;" width="74.6667" x="315" y="92.2053"/><rect fill="#FEFECE" height="3.3333" style="stroke:#A80036;stroke-width:0.5;" width="5" x="383" y="93.872"/><rect fill="#FEFECE" height="0.6667" style="stroke:#A80036;stroke-width:0.5;" width="1.3333" x="382.3333" y="94.5387"/><rect fill="#FEFECE" height="0.6667" style="stroke:#A80036;stroke-width:0.5;" width="1.3333" x="382.3333" y="95.872"/><text fill="#000000" font-family="Raleway" font-size="8" lengthAdjust="spacingAndGlyphs" textLength="61.3333" x="320" y="106.392">Tab1Component</text><!--MD5=[1c34d575704c64e7cc863e255c03f023]
entity Tab2Component--><rect fill="#FEFECE" filter="url(#f1f48goxt8qawg)" height="19.392" style="stroke:#A80036;stroke-width:0.5;" width="75.6667" x="401.5" y="92.2053"/><rect fill="#FEFECE" height="3.3333" style="stroke:#A80036;stroke-width:0.5;" width="5" x="470.5" y="93.872"/><rect fill="#FEFECE" height="0.6667" style="stroke:#A80036;stroke-width:0.5;" width="1.3333" x="469.8333" y="94.5387"/><rect fill="#FEFECE" height="0.6667" style="stroke:#A80036;stroke-width:0.5;" width="1.3333" x="469.8333" y="95.872"/><text fill="#000000" font-family="Raleway" font-size="8" lengthAdjust="spacingAndGlyphs" textLength="62.3333" x="406.5" y="106.392">Tab2Component</text><!--MD5=[5ffa467c887a99d942efde96b65c94f3]
entity Tab3Component--><rect fill="#FEFECE" filter="url(#f1f48goxt8qawg)" height="19.392" style="stroke:#A80036;stroke-width:0.5;" width="75.6667" x="488.8333" y="92.2053"/><rect fill="#FEFECE" height="3.3333" style="stroke:#A80036;stroke-width:0.5;" width="5" x="557.8333" y="93.872"/><rect fill="#FEFECE" height="0.6667" style="stroke:#A80036;stroke-width:0.5;" width="1.3333" x="557.1667" y="94.5387"/><rect fill="#FEFECE" height="0.6667" style="stroke:#A80036;stroke-width:0.5;" width="1.3333" x="557.1667" y="95.872"/><text fill="#000000" font-family="Raleway" font-size="8" lengthAdjust="spacingAndGlyphs" textLength="62.3333" x="493.8333" y="106.392">Tab3Component</text><!--MD5=[a2cb132a323d7cd99af8594039de1e4e]
entity tab1--><ellipse cx="463" cy="53.0387" fill="#FEFECE" filter="url(#f1f48goxt8qawg)" rx="2.6667" ry="2.6667" style="stroke:#A80036;stroke-width:0.5;"/><text fill="#000000" font-family="Raleway" font-size="8" lengthAdjust="spacingAndGlyphs" textLength="20.3333" x="452.8333" y="66.2253">/tab1</text><!--MD5=[4574d88d762340827cc90fd6aca8fef5]
entity tab2--><ellipse cx="500.6667" cy="53.0387" fill="#FEFECE" filter="url(#f1f48goxt8qawg)" rx="2.6667" ry="2.6667" style="stroke:#A80036;stroke-width:0.5;"/><text fill="#000000" font-family="Raleway" font-size="8" lengthAdjust="spacingAndGlyphs" textLength="21.3333" x="490" y="66.2253">/tab2</text><!--MD5=[e017cd022fbb35ffc5df31d12678ca48]
entity tab3--><ellipse cx="539" cy="53.0387" fill="#FEFECE" filter="url(#f1f48goxt8qawg)" rx="2.6667" ry="2.6667" style="stroke:#A80036;stroke-width:0.5;"/><text fill="#000000" font-family="Raleway" font-size="8" lengthAdjust="spacingAndGlyphs" textLength="21.3333" x="528.3333" y="66.2253">/tab3</text><!--MD5=[999ced0f37d2fde6c18025140ce13529]
link root to TabModule--><path d="M280.3467,53.0387 C284.7533,53.0387 289.1608,53.0387 293.5687,53.0387 C295.7727,53.0387 297.9768,53.0387 300.1809,53.0387 C301.2829,53.0387 302.385,53.0387 303.4871,53.0387 C303.7626,53.0387 304.0381,53.0387 304.3136,53.0387 " fill="none" id="root-to-TabModule" style="stroke:#A80036;stroke-width:0.3333333333333333;"/><polygon fill="#A80036" points="304.3136,53.0387,301.3136,51.7053,302.647,53.0387,301.3136,54.372,304.3136,53.0387" style="stroke:#A80036;stroke-width:0.3333333333333333;"/><!--MD5=[acd36299b321d136a3dc4c778ba461d3]
link tab1 to Tab1Component--><path d="M462.4,56.072 C461.04,61.542 457.1767,73.942 449,80.2053 C448.3867,80.6753 418.0467,87.3287 391.5233,93.082 " fill="none" id="tab1-to-Tab1Component" style="stroke:#A80036;stroke-width:0.3333333333333333;"/><polygon fill="#A80036" points="389.78,93.462,392.9941,94.1307,391.409,93.1095,392.4302,91.5244,389.78,93.462" style="stroke:#A80036;stroke-width:0.3333333333333333;"/><!--MD5=[97b073fea37eee549293ce98c832754f]
link tab2 to Tab2Component--><path d="M499.3033,56.0553 C496.5333,61.2853 489.7933,72.9587 481.3333,80.2053 C476.2367,84.5687 470.0933,88.3287 464.0967,91.422 " fill="none" id="tab2-to-Tab2Component" style="stroke:#A80036;stroke-width:0.3333333333333333;"/><polygon fill="#A80036" points="462.5767,92.192,465.855,92.0178,464.0616,91.4352,464.6442,89.6419,462.5767,92.192" style="stroke:#A80036;stroke-width:0.3333333333333333;"/><!--MD5=[8bd3fe5d428a5a567a86150081f4cf31]
link tab3 to Tab3Component--><path d="M538.3,56.0987 C536.6367,62.6053 532.3533,79.3287 529.4767,90.5687 " fill="none" id="tab3-to-Tab3Component" style="stroke:#A80036;stroke-width:0.3333333333333333;"/><polygon fill="#A80036" points="529.06,92.1853,531.0972,89.6109,529.4743,90.571,528.5143,88.9481,529.06,92.1853" style="stroke:#A80036;stroke-width:0.3333333333333333;"/><!--MD5=[bd8b70658135b0b608f66364c7b8d40a]
@startuml
skinparamlocked backgroundcolor transparent
skinparamlocked backgroundcolor transparent
skinparamlocked defaultFontSize 24
skinparamlocked defaultFontName Raleway
scale 1/3
package AppModule  {
  component AppComponent [AppComponent
  Coding Init Aplikasi
  HTML <ion-router-outlet></ion-router-outlet>]
  
  package "App Routing Module" {
    () "/" as root
  }

  
}

package TabModule {
  component TabsPage [TabsPage
  Coding Init Aplikasi
  HTML <ion-tabs></ion-tabs>]
  
  package "Tab Routing Module" {
    () "/tab1" as tab1
    () "/tab2" as tab2
    () "/tab3" as tab3
  }

  component Tab1Component
  component Tab2Component
  component Tab3Component
  
}

root -> TabModule
tab1 - -> Tab1Component
tab2 - -> Tab2Component
tab3 - -> Tab3Component
@enduml

PlantUML version 1.2020.23(Sun Dec 13 19:14:58 GMT 2020)
(GPL source distribution)
Java Runtime: OpenJDK Runtime Environment
JVM: OpenJDK 64-Bit Server VM
Default Encoding: UTF-8
Language: en
Country: US
--></g></svg>