<?xml version="1.0" encoding="UTF-8" standalone="no"?><svg xmlns="http://www.w3.org/2000/svg" xmlns:xlink="http://www.w3.org/1999/xlink" contentScriptType="application/ecmascript" contentStyleType="text/css" height="621px" preserveAspectRatio="none" style="width:1541px;height:621px;background:#00000000;" version="1.1" viewBox="0 0 1541 621" width="1541px" zoomAndPan="magnify"><defs><filter height="300%" id="fojuwwmqj47yf" width="300%" x="-1" y="-1"><feGaussianBlur result="blurOut" stdDeviation="2.0"/><feColorMatrix in="blurOut" result="blurOut2" type="matrix" values="0 0 0 0 0 0 0 0 0 0 0 0 0 0 0 0 0 0 .4 0"/><feOffset dx="4.0" dy="4.0" in="blurOut2" result="blurOut3"/><feBlend in="SourceGraphic" in2="blurOut3" mode="normal"/></filter></defs><g><!--MD5=[c83af40a2e562aea7bedd6b0dbd122e8]
cluster AppModule--><polygon filter="url(#fojuwwmqj47yf)" points="16,8.116,162,8.116,169,42.2919,881,42.2919,881,232.116,16,232.116,16,8.116" style="stroke:#000000;stroke-width:1.5;fill:none;"/><line style="stroke:#000000;stroke-width:1.5;fill:none;" x1="16" x2="169" y1="42.2919" y2="42.2919"/><text fill="#000000" font-family="Raleway" font-size="24" font-weight="bold" lengthAdjust="spacingAndGlyphs" textLength="140" x="20" y="32.6759">AppModule</text><!--MD5=[f9603faa660d7179857c36429783e1be]
cluster App Routing Module--><polygon filter="url(#fojuwwmqj47yf)" points="594,63.116,847,63.116,854,97.2919,857,97.2919,857,208.116,594,208.116,594,63.116" style="stroke:#000000;stroke-width:1.5;fill:none;"/><line style="stroke:#000000;stroke-width:1.5;fill:none;" x1="594" x2="854" y1="97.2919" y2="97.2919"/><text fill="#000000" font-family="Raleway" font-size="24" font-weight="bold" lengthAdjust="spacingAndGlyphs" textLength="247" x="598" y="87.6759">App Routing Module</text><!--MD5=[7006b8d200bc8f2573d2dcf59abae72b]
cluster TabModule--><polygon filter="url(#fojuwwmqj47yf)" points="719,264.116,862,264.116,869,298.2919,1524,298.2919,1524,614.616,719,614.616,719,264.116" style="stroke:#000000;stroke-width:1.5;fill:none;"/><line style="stroke:#000000;stroke-width:1.5;fill:none;" x1="719" x2="869" y1="298.2919" y2="298.2919"/><text fill="#000000" font-family="Raleway" font-size="24" font-weight="bold" lengthAdjust="spacingAndGlyphs" textLength="137" x="723" y="288.6759">TabModule</text><!--MD5=[afec1fc1a139c16b77fe7411e7e154e7]
cluster Tab Routing Module--><polygon filter="url(#fojuwwmqj47yf)" points="1141,327.116,1391,327.116,1398,361.2919,1479,361.2919,1479,472.116,1141,472.116,1141,327.116" style="stroke:#000000;stroke-width:1.5;fill:none;"/><line style="stroke:#000000;stroke-width:1.5;fill:none;" x1="1141" x2="1398" y1="361.2919" y2="361.2919"/><text fill="#000000" font-family="Raleway" font-size="24" font-weight="bold" lengthAdjust="spacingAndGlyphs" textLength="244" x="1145" y="351.6759">Tab Routing Module</text><!--MD5=[df2bed7f92c71626a0b31269ff497796]
entity AppComponent--><rect fill="#FEFECE" filter="url(#fojuwwmqj47yf)" height="114.5278" style="stroke:#A80036;stroke-width:1.5;" width="545" x="32.5" y="93.616"/><rect fill="#FEFECE" height="10" style="stroke:#A80036;stroke-width:1.5;" width="15" x="557.5" y="98.616"/><rect fill="#FEFECE" height="2" style="stroke:#A80036;stroke-width:1.5;" width="4" x="555.5" y="100.616"/><rect fill="#FEFECE" height="2" style="stroke:#A80036;stroke-width:1.5;" width="4" x="555.5" y="104.616"/><text fill="#000000" font-family="Raleway" font-size="24" lengthAdjust="spacingAndGlyphs" textLength="177" x="47.5" y="136.1759">AppComponent</text><text fill="#000000" font-family="Raleway" font-size="24" lengthAdjust="spacingAndGlyphs" textLength="210" x="47.5" y="164.3518">Coding Init Aplikasi</text><text fill="#000000" font-family="Raleway" font-size="24" lengthAdjust="spacingAndGlyphs" textLength="505" x="47.5" y="192.5278">HTML &lt;ion-router-outlet&gt;&lt;/ion-router-outlet&gt;</text><!--MD5=[eab4eb7d0ef44c19c3b4c8ba4c3c2b5b]
entity root--><ellipse cx="727" cy="151.116" fill="#FEFECE" filter="url(#fojuwwmqj47yf)" rx="8" ry="8" style="stroke:#A80036;stroke-width:1.5;"/><text fill="#000000" font-family="Raleway" font-size="24" lengthAdjust="spacingAndGlyphs" textLength="15" x="719.5" y="190.6759">/</text><!--MD5=[2c3ea186839e583fa5d01804bd21eb52]
entity TabsPage--><rect fill="#FEFECE" filter="url(#fojuwwmqj47yf)" height="114.5278" style="stroke:#A80036;stroke-width:1.5;" width="359" x="762.5" y="357.616"/><rect fill="#FEFECE" height="10" style="stroke:#A80036;stroke-width:1.5;" width="15" x="1101.5" y="362.616"/><rect fill="#FEFECE" height="2" style="stroke:#A80036;stroke-width:1.5;" width="4" x="1099.5" y="364.616"/><rect fill="#FEFECE" height="2" style="stroke:#A80036;stroke-width:1.5;" width="4" x="1099.5" y="368.616"/><text fill="#000000" font-family="Raleway" font-size="24" lengthAdjust="spacingAndGlyphs" textLength="112" x="777.5" y="400.1759">TabsPage</text><text fill="#000000" font-family="Raleway" font-size="24" lengthAdjust="spacingAndGlyphs" textLength="210" x="777.5" y="428.3518">Coding Init Aplikasi</text><text fill="#000000" font-family="Raleway" font-size="24" lengthAdjust="spacingAndGlyphs" textLength="319" x="777.5" y="456.5278">HTML &lt;ion-tabs&gt;&lt;/ion-tabs&gt;</text><!--MD5=[8132315f3bf7e5d6960c76c04a415e4f]
entity Tab1Component--><rect fill="#FEFECE" filter="url(#fojuwwmqj47yf)" height="58.1759" style="stroke:#A80036;stroke-width:1.5;" width="224" x="751" y="532.616"/><rect fill="#FEFECE" height="10" style="stroke:#A80036;stroke-width:1.5;" width="15" x="955" y="537.616"/><rect fill="#FEFECE" height="2" style="stroke:#A80036;stroke-width:1.5;" width="4" x="953" y="539.616"/><rect fill="#FEFECE" height="2" style="stroke:#A80036;stroke-width:1.5;" width="4" x="953" y="543.616"/><text fill="#000000" font-family="Raleway" font-size="24" lengthAdjust="spacingAndGlyphs" textLength="184" x="766" y="575.1759">Tab1Component</text><!--MD5=[1c34d575704c64e7cc863e255c03f023]
entity Tab2Component--><rect fill="#FEFECE" filter="url(#fojuwwmqj47yf)" height="58.1759" style="stroke:#A80036;stroke-width:1.5;" width="227" x="1010.5" y="532.616"/><rect fill="#FEFECE" height="10" style="stroke:#A80036;stroke-width:1.5;" width="15" x="1217.5" y="537.616"/><rect fill="#FEFECE" height="2" style="stroke:#A80036;stroke-width:1.5;" width="4" x="1215.5" y="539.616"/><rect fill="#FEFECE" height="2" style="stroke:#A80036;stroke-width:1.5;" width="4" x="1215.5" y="543.616"/><text fill="#000000" font-family="Raleway" font-size="24" lengthAdjust="spacingAndGlyphs" textLength="187" x="1025.5" y="575.1759">Tab2Component</text><!--MD5=[5ffa467c887a99d942efde96b65c94f3]
entity Tab3Component--><rect fill="#FEFECE" filter="url(#fojuwwmqj47yf)" height="58.1759" style="stroke:#A80036;stroke-width:1.5;" width="227" x="1272.5" y="532.616"/><rect fill="#FEFECE" height="10" style="stroke:#A80036;stroke-width:1.5;" width="15" x="1479.5" y="537.616"/><rect fill="#FEFECE" height="2" style="stroke:#A80036;stroke-width:1.5;" width="4" x="1477.5" y="539.616"/><rect fill="#FEFECE" height="2" style="stroke:#A80036;stroke-width:1.5;" width="4" x="1477.5" y="543.616"/><text fill="#000000" font-family="Raleway" font-size="24" lengthAdjust="spacingAndGlyphs" textLength="187" x="1287.5" y="575.1759">Tab3Component</text><!--MD5=[a2cb132a323d7cd99af8594039de1e4e]
entity tab1--><ellipse cx="1195" cy="415.116" fill="#FEFECE" filter="url(#fojuwwmqj47yf)" rx="8" ry="8" style="stroke:#A80036;stroke-width:1.5;"/><text fill="#000000" font-family="Raleway" font-size="24" lengthAdjust="spacingAndGlyphs" textLength="61" x="1164.5" y="454.6759">/tab1</text><!--MD5=[4574d88d762340827cc90fd6aca8fef5]
entity tab2--><ellipse cx="1308" cy="415.116" fill="#FEFECE" filter="url(#fojuwwmqj47yf)" rx="8" ry="8" style="stroke:#A80036;stroke-width:1.5;"/><text fill="#000000" font-family="Raleway" font-size="24" lengthAdjust="spacingAndGlyphs" textLength="64" x="1276" y="454.6759">/tab2</text><!--MD5=[e017cd022fbb35ffc5df31d12678ca48]
entity tab3--><ellipse cx="1423" cy="415.116" fill="#FEFECE" filter="url(#fojuwwmqj47yf)" rx="8" ry="8" style="stroke:#A80036;stroke-width:1.5;"/><text fill="#000000" font-family="Raleway" font-size="24" lengthAdjust="spacingAndGlyphs" textLength="64" x="1391" y="454.6759">/tab3</text><!--MD5=[999ced0f37d2fde6c18025140ce13529]
link root to TabModule--><path d="M727,160.246 C727,171.1285 727,192.0297 727,217.3596 C727,230.0245 727,243.7966 727,257.977 C727,259.7496 727,261.5285 727,263.3125 " fill="none" id="root-to-TabModule" style="stroke:#A80036;stroke-width:1.0;"/><polygon fill="#A80036" points="727,263.3125,731,254.3125,727,258.3125,723,254.3125,727,263.3125" style="stroke:#A80036;stroke-width:1.0;"/><!--MD5=[acd36299b321d136a3dc4c778ba461d3]
link tab1 to Tab1Component--><path d="M1191.96,424.146 C1186.37,437.776 1173.18,465.386 1153,480.116 C1138.34,490.816 1054.16,513.616 980.24,532.226 " fill="none" id="tab1-to-Tab1Component" style="stroke:#A80036;stroke-width:1.0;"/><polygon fill="#A80036" points="975.39,533.446,985.0973,535.1101,980.2365,532.2165,983.1301,527.3557,975.39,533.446" style="stroke:#A80036;stroke-width:1.0;"/><!--MD5=[97b073fea37eee549293ce98c832754f]
link tab2 to Tab2Component--><path d="M1301.96,424.246 C1292.18,437.086 1271.87,462.396 1251,480.116 C1229.27,498.576 1202.96,515.936 1179.94,529.776 " fill="none" id="tab2-to-Tab2Component" style="stroke:#A80036;stroke-width:1.0;"/><polygon fill="#A80036" points="1175.38,532.496,1185.1572,531.3098,1179.6712,529.9298,1181.0513,524.4439,1175.38,532.496" style="stroke:#A80036;stroke-width:1.0;"/><!--MD5=[8bd3fe5d428a5a567a86150081f4cf31]
link tab3 to Tab3Component--><path d="M1420.9,424.296 C1415.91,443.816 1403.06,493.986 1394.43,527.706 " fill="none" id="tab3-to-Tab3Component" style="stroke:#A80036;stroke-width:1.0;"/><polygon fill="#A80036" points="1393.18,532.556,1399.2917,524.8328,1394.4229,527.7129,1391.5428,522.8442,1393.18,532.556" style="stroke:#A80036;stroke-width:1.0;"/><!--MD5=[477fce25a48a8fa2b263e94328c59ddf]
@startuml
skinparamlocked backgroundcolor transparent
skinparamlocked backgroundcolor transparent
skinparamlocked defaultFontSize 24
skinparamlocked defaultFontName Raleway
package AppModule  {
  component AppComponent [AppComponent
  Coding Init Aplikasi
  HTML <ion-router-outlet></ion-router-outlet>]
  
  package "App Routing Module" {
    () "/" as root
  }

  
}

package TabModule {
  component TabsPage [TabsPage
  Coding Init Aplikasi
  HTML <ion-tabs></ion-tabs>]
  
  package "Tab Routing Module" {
    () "/tab1" as tab1
    () "/tab2" as tab2
    () "/tab3" as tab3
  }

  component Tab1Component
  component Tab2Component
  component Tab3Component
  
}

root - -> TabModule
tab1 - -> Tab1Component
tab2 - -> Tab2Component
tab3 - -> Tab3Component
@enduml

PlantUML version 1.2020.23(Sun Dec 13 19:14:58 GMT 2020)
(GPL source distribution)
Java Runtime: OpenJDK Runtime Environment
JVM: OpenJDK 64-Bit Server VM
Default Encoding: UTF-8
Language: en
Country: US
--></g></svg>